# xmcd
#
# Track frame offsets:
#	150
#	14189
#	35834
#	51153
#	64650
#	80530
#	96341
#	121887
#	137240
#	159942
#	170547
#	190723
#
# Disc length: 3345 seconds
#
# Revision: 1
# Processed by: cddbd v1.5.2PL0 Copyright (c) Steve Scherf et al.
# Submitted via: audiograbber 1.82.02
#
DISCID=a50d0f0c
DTITLE=Paul Fogarty - Born Naked
DYEAR=2006
DGENRE=Folk
TTITLE0=Stay
TTITLE1=Wherever You May Lay
TTITLE2=Born Naked
TTITLE3=The Flip Flop Song
TTITLE4=Already On Your Way
TTITLE5=Baby Don't Go
TTITLE6=Daddy Come Home
TTITLE7=Here She Comes Again
TTITLE8=Freight Train
TTITLE9=Forever
TTITLE10=See How She Runs
TTITLE11=Leavin' Town
EXTD=
EXTT0=
EXTT1=
EXTT2=
EXTT3=
EXTT4=
EXTT5=
EXTT6=
EXTT7=
EXTT8=
EXTT9=
EXTT10=
EXTT11=
PLAYORDER=
